<svg height="512pt" viewBox="0 -22 512 511" width="512pt" xmlns="http://www.w3.org/2000/svg"><path d="m475.144531 393.078125h-.039062v-234.582031c19.953125-2.671875 35.398437-19.800782 35.398437-40.476563v-76.667969c0-22.527343-18.328125-40.851562-40.851562-40.851562h-111.058594c-22.523438 0-40.851562 18.324219-40.851562 40.851562v18.921876h-125.390626c-4.1875 0-7.582031 3.394531-7.582031 7.582031s3.394531 7.582031 7.582031 7.582031h125.390626v25.171875h-193.109376c-17.867187 0-33.886718 10.289063-41.4375 26.109375h-28.910156c1.980469-12.839844 8.007813-24.667969 17.433594-33.921875 11.402344-11.195313 26.480469-17.359375 42.460938-17.359375h47.84375c4.1875 0 7.582031-3.394531 7.582031-7.582031s-3.394531-7.582031-7.582031-7.582031h-47.84375c-19.976563 0-38.828126 7.707031-53.082032 21.699218-12.761718 12.527344-20.535156 28.832032-22.296875 46.421875-22.296875 5.824219-38.800781 26.132813-38.800781 50.226563v89.644531c0 23.945313 16.304688 44.144531 38.390625 50.109375v74.703125h-.042969c-20.324218 0-36.859375 16.535156-36.859375 36.855469 0 20.324218 16.535157 36.855468 36.859375 36.855468h364.140625c4.1875 0 7.582031-3.394531 7.582031-7.582031 0-4.183593-3.394531-7.578125-7.582031-7.578125h-364.140625c-11.960937 0-21.695312-9.734375-21.695312-21.695312 0-11.960938 9.734375-21.691406 21.695312-21.691406h7.535156c.03125 0 .058594.003906.089844.003906h120.273438c3.507812 16.695312 18.34375 29.269531 36.066406 29.269531h108.863281c17.722657 0 32.558594-12.574219 36.066407-29.269531h120.28125c.027343 0 .058593-.003906.085937-.003906h7.535156c11.960938 0 21.691407 9.730468 21.691407 21.691406 0 11.960937-9.730469 21.695312-21.691407 21.695312h-42.328125c-4.1875 0-7.582031 3.394532-7.582031 7.578125 0 4.1875 3.394531 7.582031 7.582031 7.582031h42.328125c20.324219 0 36.855469-16.53125 36.855469-36.855468 0-20.320313-16.535156-36.855469-36.855469-36.855469zm-116.550781-377.414063h111.058594c14.164062 0 25.6875 11.523438 25.6875 25.6875v76.667969c0 14.164063-11.523438 25.6875-25.6875 25.6875h-111.058594c-14.164062 0-25.6875-11.523437-25.6875-25.6875v-76.667969c0-14.164062 11.523438-25.6875 25.6875-25.6875zm-233.960938 100.105469h193.109376v2.25c0 22.527344 18.324218 40.851563 40.851562 40.851563h61.011719v42.351562c-.390625-.011718-.777344-.027344-1.167969-.027344h-87.285156c-19.566406 0-35.488282 15.917969-35.488282 35.488282v69.242187c0 19.566407 15.921876 35.488281 35.488282 35.488281h81.507812c-5.734375 6.976563-14.429687 11.324219-23.796875 11.324219h-264.230469c-16.953124 0-30.742187-13.789062-30.742187-30.742187v-1.824219h122.566406c28.621094 0 51.90625-23.285156 51.90625-51.90625v-89.644531c0-28.621094-23.285156-51.90625-51.90625-51.90625h-115.347656c5.726563-6.792969 14.246094-10.945313 23.523437-10.945313zm293.804688 210.476563h-87.285156c-11.207032 0-20.324219-9.117188-20.324219-20.324219v-69.242187c0-11.207032 9.117187-20.324219 20.324219-20.324219h87.285156c11.207031 0 20.324219 9.121093 20.324219 20.324219v69.242187c0 11.207031-9.117188 20.324219-20.324219 20.324219zm-403.273438-57.980469v-89.644531c0-20.257813 16.480469-36.742188 36.742188-36.742188h164.550781c20.257813 0 36.742188 16.484375 36.742188 36.742188v89.644531c0 20.257813-16.484375 36.742187-36.742188 36.742187h-164.550781c-20.261719 0-36.742188-16.484374-36.742188-36.742187zm38.390626 51.90625h25.171874v1.824219c0 25.3125 20.59375 45.90625 45.90625 45.90625h264.230469c18.816407 0 35.824219-11.746094 42.683594-29.011719 13.097656-5.226563 22.378906-18.027344 22.378906-32.96875v-69.242187c0-13.679688-7.789062-25.570313-19.160156-31.492188v-46.316406h25.171875v234.207031h-406.382812zm257.621093 102.179687h-108.863281c-9.292969 0-17.238281-5.875-20.324219-14.105468h149.511719c-3.082031 8.230468-11.027344 14.105468-20.324219 14.105468zm0 0"/><path d="m209.34375 180.09375h17.117188c4.183593 0 7.578124-3.394531 7.578124-7.582031 0-4.183594-3.394531-7.578125-7.578124-7.578125h-17.117188c-4.183594 0-7.582031 3.394531-7.582031 7.578125 0 4.1875 3.398437 7.582031 7.582031 7.582031zm0 0"/><path d="m113.539062 180.09375h68.578126c4.1875 0 7.582031-3.394531 7.582031-7.582031 0-4.183594-3.394531-7.578125-7.582031-7.578125h-68.578126c-4.1875 0-7.582031 3.394531-7.582031 7.578125 0 4.1875 3.390625 7.582031 7.582031 7.582031zm0 0"/><path d="m41.902344 180.09375h44.40625c4.1875 0 7.582031-3.394531 7.582031-7.582031 0-4.183594-3.394531-7.578125-7.582031-7.578125h-44.40625c-4.1875 0-7.582032 3.394531-7.582032 7.578125 0 4.1875 3.394532 7.582031 7.582032 7.582031zm0 0"/><path d="m226.460938 266.792969h-83.605469c-4.1875 0-7.582031 3.394531-7.582031 7.578125 0 4.1875 3.394531 7.582031 7.582031 7.582031h83.605469c4.183593 0 7.578124-3.394531 7.578124-7.582031 0-4.183594-3.394531-7.578125-7.578124-7.578125zm0 0"/><path d="m112.527344 266.792969h-25.140625c-4.1875 0-7.582031 3.394531-7.582031 7.578125 0 4.1875 3.394531 7.582031 7.582031 7.582031h25.140625c4.1875 0 7.582031-3.394531 7.582031-7.582031 0-4.183594-3.394531-7.578125-7.582031-7.578125zm0 0"/><path d="m64.644531 274.371094c0-4.183594-3.394531-7.578125-7.582031-7.578125h-15.160156c-4.1875 0-7.582032 3.394531-7.582032 7.578125 0 4.1875 3.394532 7.582031 7.582032 7.582031h15.160156c4.1875 0 7.582031-3.394531 7.582031-7.582031zm0 0"/><path d="m226.460938 232.835938h-33.179688c-4.1875 0-7.582031 3.394531-7.582031 7.582031s3.394531 7.582031 7.582031 7.582031h33.179688c4.183593 0 7.578124-3.394531 7.578124-7.582031s-3.394531-7.582031-7.578124-7.582031zm0 0"/><path d="m41.902344 248h121.050781c4.1875 0 7.582031-3.394531 7.582031-7.582031s-3.394531-7.582031-7.582031-7.582031h-121.050781c-4.1875 0-7.582032 3.394531-7.582032 7.582031s3.394532 7.582031 7.582032 7.582031zm0 0"/><path d="m86.949219 206.46875c0 4.183594 3.394531 7.578125 7.582031 7.578125h131.929688c4.183593 0 7.578124-3.394531 7.578124-7.578125 0-4.1875-3.394531-7.582031-7.578124-7.582031h-131.929688c-4.1875 0-7.582031 3.390625-7.582031 7.582031zm0 0"/><path d="m41.902344 214.046875h22.300781c4.1875 0 7.582031-3.394531 7.582031-7.578125 0-4.1875-3.394531-7.582031-7.582031-7.582031h-22.300781c-4.1875 0-7.582032 3.394531-7.582032 7.582031 0 4.183594 3.394532 7.578125 7.582032 7.578125zm0 0"/><path d="m436.480469 117.851562c1.480469 1.480469 3.421875 2.21875 5.363281 2.21875 1.9375 0 3.878906-.738281 5.359375-2.21875l32.804687-32.804687c1.421876-1.421875 2.222657-3.351563 2.222657-5.359375 0-2.011719-.800781-3.941406-2.222657-5.363281l-32.804687-32.800781c-2.960937-2.960938-7.761719-2.960938-10.722656 0-2.960938 2.960937-2.960938 7.761718 0 10.722656l27.445312 27.441406-27.445312 27.441406c-2.960938 2.960938-2.960938 7.761719 0 10.722656zm0 0"/><path d="m381.039062 117.851562c1.484376 1.480469 3.421876 2.21875 5.363282 2.21875s3.882812-.738281 5.363281-2.21875c2.960937-2.960937 2.960937-7.761718 0-10.722656l-27.445313-27.441406 27.445313-27.441406c2.960937-2.960938 2.960937-7.761719 0-10.722656-2.960937-2.960938-7.761719-2.960938-10.722656 0l-32.804688 32.800781c-1.421875 1.421875-2.222656 3.351562-2.222656 5.363281 0 2.007812.800781 3.9375 2.222656 5.359375zm0 0"/><path d="m402.027344 136.964844c.527344.113281 1.054687.164062 1.574218.164062 3.507813 0 6.65625-2.445312 7.410157-6.015625l21.058593-99.722656c.867188-4.097656-1.753906-8.121094-5.851562-8.984375-4.09375-.863281-8.121094 1.753906-8.984375 5.851562l-21.058594 99.722657c-.867187 4.097656 1.753907 8.121093 5.851563 8.984375zm0 0"/><path d="m412.660156 233.382812c-3.679687-2.003906-8.28125-.648437-10.289062 3.027344l-31.046875 56.945313-18.074219-20.953125c-2.734375-3.171875-7.523438-3.523438-10.691406-.789063-3.171875 2.734375-3.523438 7.523438-.789063 10.691407l25.222657 29.25c1.453124 1.675781 3.550781 2.628906 5.742187 2.628906.269531 0 .535156-.015625.804687-.042969 2.476563-.261719 4.660157-1.722656 5.855469-3.910156l36.292969-66.558594c2.003906-3.679687.648438-8.285156-3.027344-10.289063zm0 0"/></svg>